HIERARCHY
ROOT Hips
{
    OFFSET 0.000000 0.000000 0.000000
    CHANNELS 6 Xposition Yposition Zposition Zrotation Xrotation Yrotation
    JOINT Spine
    {
        OFFSET -0.000000 14.517291 0.000000
        CHANNELS 3 Zrotation Xrotation Yrotation
        JOINT Spine1
        {
            OFFSET -0.000000 37.558300 0.000000
            CHANNELS 3 Zrotation Xrotation Yrotation
            JOINT Neck
            {
                OFFSET -0.000000 37.404057 3.400369
                CHANNELS 3 Zrotation Xrotation Yrotation
                JOINT Head
                {
                    OFFSET -0.000000 24.785618 -3.540803
                    CHANNELS 3 Zrotation Xrotation Yrotation
                    End Site
                    {
                        OFFSET -0.000000 35.408028 0.000000
                    }
                }
            }
            JOINT LeftShoulder
            {
                OFFSET 6.992933 33.973492 -0.192664
                CHANNELS 3 Zrotation Xrotation Yrotation
                JOINT LeftArm
                {
                    OFFSET 21.527611 0.000000 0.000000
                    CHANNELS 3 Zrotation Xrotation Yrotation
                    JOINT LeftForeArm
                    {
                        OFFSET 56.353916 0.000000 0.000000
                        CHANNELS 3 Zrotation Xrotation Yrotation
                        JOINT LeftHand
                        {
                            OFFSET 47.774071 0.000000 0.000000
                            CHANNELS 3 Zrotation Xrotation Yrotation
                            End Site
                            {
                                OFFSET 26.556021 0.000000 0.000000
                            }
                        }
                    }
                }
            }
            JOINT RightShoulder
            {
                OFFSET -7.065357 33.973492 -0.192664
                CHANNELS 3 Zrotation Xrotation Yrotation
                JOINT RightArm
                {
                    OFFSET -21.527611 0.000000 0.000000
                    CHANNELS 3 Zrotation Xrotation Yrotation
                    JOINT RightForeArm
                    {
                        OFFSET -56.353916 0.000000 0.000000
                        CHANNELS 3 Zrotation Xrotation Yrotation
                        JOINT RightHand
                        {
                            OFFSET -47.774071 0.000000 0.000000
                            CHANNELS 3 Zrotation Xrotation Yrotation
                            End Site
                            {
                                OFFSET -26.556021 0.000000 0.000000
                            }
                        }
                    }
                }
            }
        }
    }
    JOINT LeftUpLeg
    {
        OFFSET 17.704014 0.000000 0.000000
        CHANNELS 3 Zrotation Xrotation Yrotation
        JOINT LeftLeg
        {
            OFFSET -0.000000 -81.181816 0.000000
            CHANNELS 3 Zrotation Xrotation Yrotation
            JOINT LeftFoot
            {
                OFFSET -0.000000 -62.821102 0.000000
                CHANNELS 3 Zrotation Xrotation Yrotation
                JOINT LeftToeBase
                {
                    OFFSET -0.000000 -11.507608 26.556021
                    CHANNELS 3 Zrotation Xrotation Yrotation
                    End Site
                    {
                        OFFSET -0.000000 0.000000 7.081605
                    }
                }
            }
        }
    }
    JOINT RightUpLeg
    {
        OFFSET -17.704014 0.000000 0.000000
        CHANNELS 3 Zrotation Xrotation Yrotation
        JOINT RightLeg
        {
            OFFSET -0.000000 -81.181816 0.000000
            CHANNELS 3 Zrotation Xrotation Yrotation
            JOINT RightFoot
            {
                OFFSET -0.000000 -62.821102 0.000000
                CHANNELS 3 Zrotation Xrotation Yrotation
                JOINT RightToeBase
                {
                    OFFSET -0.000000 -11.507608 26.556021
                    CHANNELS 3 Zrotation Xrotation Yrotation
                    End Site
                    {
                        OFFSET -0.000000 0.000000 7.081605
                    }
                }
            }
        }
    }
}
MOTION
Frames:    6
Frame Time:    0.008333
-0.369836    157.686447    -95.831001    -17.830584    -11.967498    27.516165    -5.384458    4.683161    -1.435627    -18.139997    -0.211881    -0.573188    9.380821    -13.936894    -3.808962    11.826284    7.262775    -5.575060    9.001555    1.606167    -27.610338    -24.503321    18.754543    -75.061859    -16.558825    -7.275783    -77.305893    16.757910    -20.891838    -4.599784    -19.646898    -14.100094    -3.183737    24.436783    -26.056355    74.271820    -6.938662    -14.015455    18.799644    -3.538146    -13.746349    27.708061    37.691040    -3.292598    4.082032    -11.350821    39.736588    -14.985381    -0.769293    -32.072948    41.621300    0.000000    0.000000    0.000000    8.811950    -18.930904    -4.362598    6.819736    11.010961    -10.723092    1.331084    23.485022    -15.397523    0.000000    0.000000    0.000000    
-0.341228    157.679871    -95.789146    -17.798767    -11.994176    27.568155    -5.387424    4.668352    -1.423902    -18.128275    -0.197937    -0.566896    9.419725    -13.880960    -3.800323    11.813740    7.237516    -5.570464    8.999180    1.626243    -27.618738    -24.493187    18.762312    -75.091560    -16.537945    -7.309135    -77.269875    16.713734    -20.896177    -4.592325    -19.627293    -14.098714    -3.173465    24.477167    -25.969542    74.383896    -7.163789    -14.053501    18.538939    -3.396174    -13.734488    27.843361    37.654224    -3.277180    4.034965    -11.315653    39.737770    -14.973724    -0.790401    -32.090172    41.608257    0.000000    0.000000    0.000000    8.774951    -18.913076    -4.412922    6.832541    11.078749    -10.698534    1.304507    23.431211    -15.406849    0.000000    0.000000    0.000000    
-0.309684    157.676239    -95.746880    -17.762249    -12.023892    27.615614    -5.403201    4.672936    -1.402799    -18.098515    -0.208773    -0.561915    9.466961    -13.843364    -3.795575    11.781351    7.246424    -5.578838    8.992087    1.639817    -27.649935    -24.490200    18.787670    -75.098137    -16.535177    -7.341107    -77.260727    16.734110    -20.921747    -4.584074    -19.604494    -14.097084    -3.168068    24.453135    -25.949741    74.351822    -7.161826    -14.055958    18.535479    -3.355255    -13.727860    27.851643    37.612839    -3.240868    3.973428    -11.285267    39.714447    -14.965554    -0.786967    -32.103416    41.607174    0.000000    0.000000    0.000000    8.665693    -18.891926    -4.155903    7.049247    11.132268    -10.816556    1.320303    23.344978    -15.626216    0.000000    0.000000    0.000000    
-0.276875    157.676270    -95.705132    -17.726845    -12.052227    27.658924    -5.406071    4.663642    -1.381364    -18.084845    -0.203070    -0.553761    9.471320    -13.784883    -3.795204    11.819075    7.219209    -5.568884    8.988191    1.639637    -27.668211    -24.515619    18.807192    -75.094162    -16.545544    -7.337804    -77.255386    16.695999    -20.923944    -4.583748    -19.591854    -14.079211    -3.158225    24.452112    -25.944370    74.326889    -7.172914    -14.055115    18.543062    -3.429884    -13.741496    27.810116    37.564415    -3.192051    3.924351    -11.228208    39.669819    -14.983258    -0.793607    -32.121559    41.605896    0.000000    0.000000    0.000000    8.630837    -18.871620    -4.183990    7.056888    11.207023    -10.770344    1.320650    23.292654    -15.675367    0.000000    0.000000    0.000000    
-0.243052    157.677246    -95.667595    -17.680771    -12.076381    27.693502    -5.421677    4.666995    -1.354369    -18.063683    -0.219284    -0.547574    9.474124    -13.767394    -3.802021    11.838815    7.265606    -5.578566    8.975922    1.645771    -27.689138    -24.562956    18.816990    -75.073982    -16.579836    -7.292594    -77.250336    16.691587    -20.908882    -4.600384    -19.593933    -14.047873    -3.161756    24.499622    -25.948124    74.336456    -7.148238    -14.045205    18.560888    -3.426536    -13.732977    27.790464    37.500164    -3.133617    3.914371    -11.143324    39.620018    -15.029449    -0.790179    -32.120487    41.602093    0.000000    0.000000    0.000000    8.565273    -18.845306    -4.127117    7.126512    11.262990    -10.776773    1.331601    23.236010    -15.765549    0.000000    0.000000    0.000000    
-0.214756    157.678879    -95.629974    -17.648405    -12.094940    27.724989    -5.421655    4.647991    -1.328830    -18.046347    -0.219419    -0.538806    9.424105    -13.714144    -3.830325    11.932330    7.276594    -5.583747    8.961755    1.650983    -27.699951    -24.618401    18.816307    -75.054726    -16.620581    -7.230636    -77.253258    16.688091    -20.883266    -4.605955    -19.598822    -14.016152    -3.155065    24.515148    -25.941126    74.327438    -7.160191    -14.048649    18.573452    -3.389494    -13.724699    27.786102    37.449429    -3.082935    3.889283    -11.074875    39.570026    -15.085374    -0.776779    -32.136497    41.630432    0.000000    0.000000    0.000000    8.538754    -18.831381    -4.168699    7.119037    11.326650    -10.750962    1.318588    23.193327    -15.768438    0.000000    0.000000    0.000000    
